<?xml version="1.0" encoding="UTF-8"?>
<svg version="1.1" xmlns="http://www.w3.org/2000/svg" width="128" height="128">
<path d="M0 0 C4.6458548 2.75096164 6.96924266 5.84659878 8.8125 10.9375 C10.98963615 15.29177231 13.02323467 15.71365524 17.5 17.3125 C20.8899319 20.02931145 21.53385866 22.89109978 22.34765625 27.02734375 C22.57859185 30.49137769 21.43845783 32.50507832 19.5 35.3125 C19.108125 35.910625 18.71625 36.50875 18.3125 37.125 C15.29004594 39.10522852 12.06297726 39.02045268 8.5 39.3125 C8.995 40.42625 9.49 41.54 10 42.6875 C11.86706789 47.57869193 11.78600529 52.1432192 11.5 57.3125 C12.221875 57.51875 12.94375 57.725 13.6875 57.9375 C18.40436122 60.24352104 21.5759719 64.46807212 23.5 69.3125 C24.15643295 75.91092991 24.6677131 82.84237656 20.5 88.3125 C14.89443312 93.90638861 11.35020375 96.42494844 3.27197266 96.47363281 C1.98698883 96.48324036 0.702005 96.4928479 -0.62191772 96.50274658 C-2.02658918 96.50759448 -3.43126269 96.51187333 -4.8359375 96.515625 C-6.27698773 96.52137878 -7.71803794 96.52713649 -9.15908813 96.53289795 C-12.18028113 96.54339928 -15.20144758 96.54924767 -18.22265625 96.55273438 C-22.08857068 96.55821837 -25.95413279 96.58224766 -29.81993675 96.61070633 C-32.79683448 96.62935566 -35.7736477 96.63453951 -38.75059891 96.63607025 C-40.17552238 96.63909197 -41.60044453 96.64710432 -43.02531052 96.66025543 C-45.021197 96.6773625 -47.01722919 96.67358413 -49.01318359 96.66894531 C-50.14774994 96.67259094 -51.28231628 96.67623657 -52.45126343 96.67999268 C-57.1574119 96.11271667 -59.66727195 94.26088472 -62.75 90.75 C-65.64638033 86.71575596 -65.59181421 84.27046752 -65.5 79.3125 C-66.57314453 79.3439209 -66.57314453 79.3439209 -67.66796875 79.37597656 C-70.94516652 79.45970833 -74.22213841 79.51134051 -77.5 79.5625 C-78.62535156 79.59601563 -79.75070313 79.62953125 -80.91015625 79.6640625 C-87.96590312 79.74658586 -92.52215482 79.14840065 -98.5 75.3125 C-103.90899791 69.61881799 -104.97377724 65.06783954 -104.8046875 57.35546875 C-104.27309339 52.04634296 -102.76671235 48.27927861 -98.69921875 44.75 C-94.38551377 41.80160359 -90.6858994 40.63661871 -85.5 40.3125 C-85.190625 38.6109375 -85.190625 38.6109375 -84.875 36.875 C-82.50978966 27.64252379 -76.39949453 21.3073694 -68.5 16.3125 C-63.66978445 13.60916948 -59.30760758 13.18474893 -53.8125 12.9375 C-48.73678894 12.73719346 -48.73678894 12.73719346 -44.625 9.875 C-43.573125 8.6065625 -43.573125 8.6065625 -42.5 7.3125 C-38.53644611 5.74203525 -35.83028639 5.29152944 -31.5625 5.5625 C-27.01513719 5.73059318 -24.60751973 3.59339421 -21.26171875 0.72265625 C-15.81613093 -3.6362289 -6.02681277 -2.81478261 0 0 Z " fill="#A9E7FE" transform="translate(104.5,16.6875)"/>
<path d="M0 0 C0.763125 0.9075 1.52625 1.815 2.3125 2.75 C5.98436491 5.82411946 8.45260323 5.19748221 13.0859375 5.00390625 C18.51014079 4.9966352 23.69252689 6.02216591 27.88671875 9.6171875 C33.40900948 15.84814992 34.41432868 20.57297378 34.23828125 28.875 C33.77306436 34.97620517 31.36287192 37.82656738 27 41.8125 C22.62441218 45.56655546 19.48749994 46.12668754 13.77197266 46.16113281 C12.48698883 46.17074036 11.202005 46.1803479 9.87808228 46.19024658 C8.47341082 46.19509448 7.06873731 46.19937333 5.6640625 46.203125 C4.22301227 46.20887878 2.78196206 46.21463649 1.34091187 46.22039795 C-1.68028113 46.23089928 -4.70144758 46.23674767 -7.72265625 46.24023438 C-11.58857068 46.24571837 -15.45413279 46.26974766 -19.31993675 46.29820633 C-22.29683448 46.31685566 -25.2736477 46.32203951 -28.25059891 46.32357025 C-29.67552238 46.32659197 -31.10044453 46.33460432 -32.52531052 46.34775543 C-34.521197 46.3648625 -36.51722919 46.36108413 -38.51318359 46.35644531 C-39.64774994 46.36009094 -40.78231628 46.36373657 -41.95126343 46.36749268 C-46.6574119 45.80021667 -49.16727195 43.94838472 -52.25 40.4375 C-55.20304527 36.32432981 -55.5113982 32.98380796 -55 28 C-53.29557807 23.33526629 -51.24376696 20.60412972 -47 18 C-43.1875 17.25 -43.1875 17.25 -40 17 C-39.86464844 16.443125 -39.72929688 15.88625 -39.58984375 15.3125 C-37.58355076 8.20037155 -34.21014196 2.76415392 -27.94140625 -1.3515625 C-18.55508799 -6.28425905 -8.89777261 -6.02432711 0 0 Z " fill="#6BD8FC" transform="translate(94,67)"/>
<path d="M0 0 C4.6458548 2.75096164 6.96924266 5.84659878 8.8125 10.9375 C10.98963615 15.29177231 13.02323467 15.71365524 17.5 17.3125 C20.8899319 20.02931145 21.53385866 22.89109978 22.34765625 27.02734375 C22.62442985 31.17894772 20.73550722 33.8392567 18.16015625 36.91015625 C15.53622074 39.12661001 13.04342097 39.29969539 9.6953125 39.57421875 C7.5 39.3125 7.5 39.3125 5 36.6875 C4.63003906 36.13449219 4.26007813 35.58148438 3.87890625 35.01171875 C0.58714254 30.95529605 -5.36797778 28.12424341 -10.5 27.3125 C-13.89187747 27.35136526 -17.26930587 27.43422921 -20.65625 27.61523438 C-24.22820584 27.70519968 -26.10498932 27.61060962 -29 25.42578125 C-30.5 23.3125 -30.5 23.3125 -30.5 21.3125 C-31.139375 21.065 -31.77875 20.8175 -32.4375 20.5625 C-35.80006813 19.19002321 -39.10514564 17.71119694 -42.4140625 16.21484375 C-44.62437419 15.22303164 -44.62437419 15.22303164 -47.5 14.3125 C-46.2016661 11.41621669 -45.04677947 9.2445396 -42.5 7.3125 C-38.57003001 5.84839353 -35.76877101 5.29543517 -31.5625 5.5625 C-27.01513719 5.73059318 -24.60751973 3.59339421 -21.26171875 0.72265625 C-15.81613093 -3.6362289 -6.02681277 -2.81478261 0 0 Z " fill="#64A9FC" transform="translate(104.5,16.6875)"/>
<path d="M0 0 C0 0.33 0 0.66 0 1 C-1.27875 1.20625 -2.5575 1.4125 -3.875 1.625 C-12.18917098 3.5104183 -18.90981875 7.76820203 -23.78515625 14.77734375 C-25.125261 17.22917528 -25.94370487 19.65977887 -26.8125 22.3125 C-28.38456639 26.65060727 -28.38456639 26.65060727 -31.10546875 28.1953125 C-33.5 28.9375 -33.5 28.9375 -35.87890625 29.484375 C-38.43606232 30.1060041 -40.00420207 31.32352974 -42 33 C-42.66 33 -43.32 33 -44 33 C-44.433125 34.11375 -44.433125 34.11375 -44.875 35.25 C-46 38 -46 38 -47.046875 39.90625 C-48.98155922 44.15621206 -48.6330789 48.75617604 -47.3828125 53.1875 C-44.35063172 60.27153298 -38.58489869 62.73694752 -32 66 C-38.36191343 66.45442239 -42.68833508 65.64734325 -48 62 C-53.40899791 56.30631799 -54.47377724 51.75533954 -54.3046875 44.04296875 C-53.77309339 38.73384296 -52.26671235 34.96677861 -48.19921875 31.4375 C-43.88551377 28.48910359 -40.1858994 27.32411871 -35 27 C-34.690625 25.2984375 -34.690625 25.2984375 -34.375 23.5625 C-32.01147578 14.33660547 -25.90174047 7.98417476 -18 3 C-12.12286779 -0.21924786 -6.59872666 -0.36509348 0 0 Z " fill="#73DBFC" transform="translate(54,30)"/>
<path d="M0 0 C0 0.33 0 0.66 0 1 C-0.59167969 1.17015625 -1.18335938 1.3403125 -1.79296875 1.515625 C-10.03992481 4.0448709 -13.87697307 7.19035529 -17.984375 14.78125 C-19.08627703 16.93584003 -19.08627703 16.93584003 -19.37109375 19.19140625 C-19.68240234 20.08666016 -19.68240234 20.08666016 -20 21 C-21.92578125 21.87109375 -21.92578125 21.87109375 -24.3125 22.4375 C-28.62609217 23.69248787 -30.62436048 25.0406008 -33 29 C-34.58299585 33.74898755 -34.55207896 37.56459472 -32.75 42.25 C-31.01761235 44.97232345 -29.70421639 46.30986475 -27 48 C-26.01 48.66 -25.02 49.32 -24 50 C-29.01615953 50.29506821 -31.99681229 50.13763361 -36 47 C-39.88515247 42.57524302 -41.31238162 40.0760724 -41.21484375 34.09375 C-40.75937746 29.65502394 -38.79496512 26.81704748 -35.75 23.6875 C-32.46962919 21.67454519 -29.80617265 21.29852335 -26 21 C-25.86464844 20.443125 -25.72929688 19.88625 -25.58984375 19.3125 C-23.37201155 11.45048407 -19.28357318 5.55119263 -12.0625 1.5 C-7.94517299 -0.33708524 -4.45692043 -0.31835146 0 0 Z " fill="#66AFFC" transform="translate(80,63)"/>
<path d="M0 0 C8.73126307 0.72760526 16.04473358 4.48642736 22 11 C22 11.66 22 12.32 22 13 C19.75 13.25 19.75 13.25 17 13 C14.6875 11.125 14.6875 11.125 13 9 C13 8.34 13 7.68 13 7 C12.34 6.7525 11.68 6.505 11 6.25 C7.23639093 4.68182955 3.6288576 2.85494954 0 1 C0 0.67 0 0.34 0 0 Z " fill="#398CFE" transform="translate(61,31)"/>
<path d="M0 0 C7.33075024 0.73307502 12.56351407 3.00431022 18 8 C19.8125 10.75 19.8125 10.75 21 13 C18.8125 13.375 18.8125 13.375 16 13 C14.8106626 11.57940255 13.62938368 10.14949455 12.52734375 8.66015625 C10.11599594 6.03912602 7.13862413 4.66653318 3.98828125 3.078125 C2 2 2 2 0 0 Z " fill="#368AFE" transform="translate(96,43)"/>
</svg>
