<?xml version="1.0" encoding="UTF-8"?>
<svg version="1.1" xmlns="http://www.w3.org/2000/svg" width="96" height="96">
<path d="M0 0 C4.28885952 2.59734811 7.85965893 6.29296912 10.5625 10.5 C10.90279221 12.16525977 11.23732717 13.83172199 11.5625 15.5 C13.21947379 16.19040574 14.8880761 16.8530635 16.5625 17.5 C21.21272961 21.94355274 22.72209452 25.90844624 22.875 32.25 C22.80756938 39.22906923 21.23244004 42.58733814 16.5 47.75 C12.85723048 49.92016056 9.29193402 50.8203831 5.18359375 51.7890625 C2.61403222 52.37211529 2.61403222 52.37211529 0.69921875 53.54272461 C-1.80785275 54.66592243 -3.51723645 54.58297986 -6.24609375 54.52734375 C-9.54230256 54.80268339 -10.99435028 55.09126133 -13.44970703 57.35595703 C-15.2953454 59.85221978 -16.91813889 62.39155148 -18.5 65.0625 C-19.61413497 66.83573644 -20.72992338 68.60793549 -21.84765625 70.37890625 C-22.32340088 71.1685376 -22.79914551 71.95816895 -23.28930664 72.77172852 C-23.66821045 73.34205811 -24.04711426 73.9123877 -24.4375 74.5 C-24.7675 74.5 -25.0975 74.5 -25.4375 74.5 C-25.1075 69.22 -24.7775 63.94 -24.4375 58.5 C-26.7475 58.5 -29.0575 58.5 -31.4375 58.5 C-31.4375 56.52 -31.4375 54.54 -31.4375 52.5 C-32.66726562 52.40203125 -33.89703125 52.3040625 -35.1640625 52.203125 C-36.79695712 52.05297377 -38.42976548 51.90188228 -40.0625 51.75 C-41.27486328 51.6571875 -41.27486328 51.6571875 -42.51171875 51.5625 C-49.13729407 50.91610241 -53.15043783 48.90743387 -57.8125 44 C-60.21053575 38.83499991 -60.19131535 34.0997712 -59.4375 28.5 C-57.14972229 23.57247877 -54.13443835 21.15479124 -49.4375 18.5 C-48.7775 18.5 -48.1175 18.5 -47.4375 18.5 C-47.416875 17.63375 -47.39625 16.7675 -47.375 15.875 C-46.24734931 11.8154575 -44.83763168 10.25540348 -41.6015625 7.671875 C-38.38843942 5.93191665 -35.39276183 5.97759365 -31.796875 5.8359375 C-27.92429553 5.28454373 -26.22533803 3.15817115 -23.4375 0.5 C-16.67518874 -2.92827975 -6.94844538 -3.07911501 0 0 Z " fill="#BED4F1" transform="translate(65.4375,15.5)"/>
<path d="M0 0 C0.33 0.99 0.66 1.98 1 3 C1.7425 3.268125 2.485 3.53625 3.25 3.8125 C7.10045895 5.47519818 8.52015821 7.62465979 11 11 C12.78468529 16.35405587 13.04514547 22.79640194 11.28125 28.203125 C8.69885865 32.99304443 5.57897644 36.17871881 0.375 37.8359375 C-1.53546244 38.34912023 -3.45351554 38.83508688 -5.37890625 39.2890625 C-7.96818274 39.88577308 -7.96818274 39.88577308 -10.01171875 41.078125 C-12.54200847 42.25130452 -14.47603936 42.19799896 -17.25 42.125 C-18.58804688 42.09792969 -18.58804688 42.09792969 -19.953125 42.0703125 C-20.62859375 42.04710937 -21.3040625 42.02390625 -22 42 C-21.67 41.01 -21.34 40.02 -21 39 C-23.31 38.67 -25.62 38.34 -28 38 C-27.01 35.69 -26.02 33.38 -25 31 C-23.85402344 30.99742188 -22.70804688 30.99484375 -21.52734375 30.9921875 C-11.860386 31.16834984 -11.860386 31.16834984 -3.5 27.0625 C-0.36646131 23.22391511 0.12534015 21.80918625 0.09765625 16.9921875 C0.09282227 15.51298828 0.09282227 15.51298828 0.08789062 14.00390625 C0.07951172 12.97136719 0.07113281 11.93882813 0.0625 10.875 C0.05798828 9.83472656 0.05347656 8.79445313 0.04882812 7.72265625 C0.03701952 5.14838038 0.02055075 2.57421854 0 0 Z " fill="#8FB3E0" transform="translate(76,28)"/>
<path d="M0 0 C0 0.66 0 1.32 0 2 C1.32 2.66 2.64 3.32 4 4 C2.1377385 5.8622615 -1.14293703 5.30437219 -3.67578125 5.42578125 C-7.82959807 6.45201835 -9.55306627 9.26604461 -11.703125 12.796875 C-12.21359375 13.77140625 -12.7240625 14.7459375 -13.25 15.75 C-13.77078125 16.73484375 -14.2915625 17.7196875 -14.828125 18.734375 C-15.21484375 19.48203125 -15.6015625 20.2296875 -16 21 C-16.66 21 -17.32 21 -18 21 C-18.33 21.99 -18.66 22.98 -19 24 C-19.66 24.33 -20.32 24.66 -21 25 C-20.93912884 26.39699314 -20.85011115 27.7927696 -20.75 29.1875 C-20.70359375 29.96480469 -20.6571875 30.74210937 -20.609375 31.54296875 C-19.75268362 34.99719231 -18.67298301 36.63153405 -16 39 C-12.99932013 39.20787843 -10.67898588 39.17215463 -7.75 38.8125 C-7.00492188 38.74224609 -6.25984375 38.67199219 -5.4921875 38.59960938 C-3.65903503 38.42334471 -1.82903685 38.21480549 0 38 C-0.33 40.64 -0.66 43.28 -1 46 C-2.093125 45.855625 -3.18625 45.71125 -4.3125 45.5625 C-6.80493902 45.234897 -9.25807769 44.98616791 -11.76953125 44.8515625 C-19.19650785 44.42484155 -23.1394415 43.01111421 -28.375 37.5 C-30.77303575 32.33499991 -30.75381535 27.5997712 -30 22 C-27.71222229 17.07247877 -24.69693835 14.65479124 -20 12 C-19.34 12 -18.68 12 -18 12 C-17.979375 11.13375 -17.95875 10.2675 -17.9375 9.375 C-16.8138696 5.32993054 -15.41413513 3.70630811 -12.1875 1.125 C-8.27021737 -0.8896025 -4.2797902 -0.46500739 0 0 Z " fill="#82ADDC" transform="translate(36,22)"/>
<path d="M0 0 C0.66 0 1.32 0 2 0 C2 0.66 2 1.32 2 2 C7.94 1.505 7.94 1.505 14 1 C13.67 2.65 13.34 4.3 13 6 C15.31 6.33 17.62 6.66 20 7 C17.21279424 12.87895182 14.0370954 18.17210194 10.3125 23.5 C9.56516602 24.59054688 9.56516602 24.59054688 8.80273438 25.703125 C7.56510895 27.48987324 6.28635404 29.24800707 5 31 C4.67 31 4.34 31 4 31 C4.33 25.72 4.66 20.44 5 15 C2.69 15 0.38 15 -2 15 C-1.85816304 13.24967156 -1.71136571 11.49974466 -1.5625 9.75 C-1.48128906 8.77546875 -1.40007813 7.8009375 -1.31640625 6.796875 C-1.04925416 4.43538247 -0.64628032 2.28098935 0 0 Z " fill="#FED630" transform="translate(36,59)"/>
<path d="M0 0 C0.33 0.99 0.66 1.98 1 3 C3.50447516 4.21869929 3.50447516 4.21869929 6 5 C7.3715655 20.69680511 7.3715655 20.69680511 4.13671875 26.12890625 C0.35785794 29.8830282 -3.78198335 33.67208466 -9.26171875 34.23046875 C-14.90431505 34.13051938 -20.40134735 33.72240679 -26 33 C-25.67 32.34 -25.34 31.68 -25 31 C-23.85402344 30.99742188 -22.70804688 30.99484375 -21.52734375 30.9921875 C-11.860386 31.16834984 -11.860386 31.16834984 -3.5 27.0625 C-0.36646131 23.22391511 0.12534015 21.80918625 0.09765625 16.9921875 C0.09282227 15.51298828 0.09282227 15.51298828 0.08789062 14.00390625 C0.07951172 12.97136719 0.07113281 11.93882813 0.0625 10.875 C0.05798828 9.83472656 0.05347656 8.79445313 0.04882812 7.72265625 C0.03701952 5.14838038 0.02055075 2.57421854 0 0 Z " fill="#9DBDE6" transform="translate(76,28)"/>
<path d="M0 0 C1.76923828 0.04060547 1.76923828 0.04060547 3.57421875 0.08203125 C4.47785156 0.11683594 5.38148437 0.15164062 6.3125 0.1875 C5.9825 0.8475 5.6525 1.5075 5.3125 2.1875 C3.08373114 2.50395805 0.88550637 2.5666634 -1.36328125 2.6484375 C-4.53285132 3.38356468 -5.63189546 4.69050799 -7.6875 7.1875 C-8.83256966 9.0679355 -9.91592327 10.98721715 -10.9375 12.9375 C-11.45828125 13.92234375 -11.9790625 14.9071875 -12.515625 15.921875 C-12.90234375 16.66953125 -13.2890625 17.4171875 -13.6875 18.1875 C-14.3475 18.1875 -15.0075 18.1875 -15.6875 18.1875 C-16.0175 19.1775 -16.3475 20.1675 -16.6875 21.1875 C-17.18894531 21.60644531 -17.69039062 22.02539062 -18.20703125 22.45703125 C-20.44680097 25.07502066 -20.20756922 27.49289826 -20.375 30.875 C-20.44074219 32.05449219 -20.50648437 33.23398437 -20.57421875 34.44921875 C-20.61160156 35.35285156 -20.64898438 36.25648437 -20.6875 37.1875 C-21.3475 36.8575 -22.0075 36.5275 -22.6875 36.1875 C-23.27942268 33.59559614 -23.71364762 31.12569555 -24.0625 28.5 C-24.18238281 27.79166016 -24.30226563 27.08332031 -24.42578125 26.35351562 C-24.97836168 22.25457994 -24.87790801 20.55534316 -22.91015625 16.75390625 C-20.6875 14.1875 -20.6875 14.1875 -17.75 12.8125 C-14.00845987 10.82719299 -12.86408038 8.75531594 -10.86328125 5.125 C-7.84908206 0.15808041 -5.85273155 -0.17384351 0 0 Z " fill="#A0BEE6" transform="translate(33.6875,24.8125)"/>
<path d="M0 0 C0.33 0 0.66 0 1 0 C1.0825 1.051875 1.165 2.10375 1.25 3.1875 C2.09178365 7.46656689 2.79492087 9.07891522 6 12 C9.00067987 12.20787843 11.32101412 12.17215463 14.25 11.8125 C14.99507812 11.74224609 15.74015625 11.67199219 16.5078125 11.59960938 C18.34096497 11.42334471 20.17096315 11.21480549 22 11 C21.67 13.64 21.34 16.28 21 19 C19.906875 18.855625 18.81375 18.71125 17.6875 18.5625 C13.2419746 17.99786261 8.78742179 17.62965964 4.3203125 17.28125 C2 17 2 17 0 16 C-1.08489672 12.74530985 -1.13323992 10.29456791 -1.125 6.875 C-1.12757812 5.79992188 -1.13015625 4.72484375 -1.1328125 3.6171875 C-1 1 -1 1 0 0 Z " fill="#94B6E1" transform="translate(14,49)"/>
<path d="M0 0 C1.32 0 2.64 0 4 0 C6.56025206 2.92600235 7.20905314 5.40134503 7.3125 9.1875 C7 13 7 13 5 15 C2 15.25 2 15.25 -1 15 C-3 13 -3 13 -3.3125 9.1875 C-3.20905314 5.40134503 -2.56025206 2.92600235 0 0 Z " fill="#54B5F0" transform="translate(57,75)"/>
<path d="M0 0 C0.66 0 1.32 0 2 0 C2 0.66 2 1.32 2 2 C4.31 2.33 6.62 2.66 9 3 C6.21279424 8.87895182 3.0370954 14.17210194 -0.6875 19.5 C-1.43483398 20.59054688 -1.43483398 20.59054688 -2.19726562 21.703125 C-3.43489105 23.48987324 -4.71364596 25.24800707 -6 27 C-6.33 27 -6.66 27 -7 27 C-6.67 21.72 -6.34 16.44 -6 11 C-8.31 11 -10.62 11 -13 11 C-12.67 8.03 -12.34 5.06 -12 2 C-11.34 2 -10.68 2 -10 2 C-10.33 4.64 -10.66 7.28 -11 10 C-8.69 10 -6.38 10 -4 10 C-4 13.3 -4 16.6 -4 20 C-1.95437955 16.74560383 -0.40851283 13.5682325 1 10 C1.66 9.01 2.32 8.02 3 7 C3.66 7 4.32 7 5 7 C5 6.01 5 5.02 5 4 C3.02 4 1.04 4 -1 4 C-0.67 2.68 -0.34 1.36 0 0 Z " fill="#FEB20F" transform="translate(47,63)"/>
<path d="M0 0 C0.680625 0.165 1.36125 0.33 2.0625 0.5 C6.78782666 1.30431092 11.39646983 1.47312965 16 0 C15.47731534 2.76276177 14.89130413 5.3260876 14 8 C11.1085914 9.1194613 8.32237388 9.10768197 5.25 9.0625 C4.45078125 9.05347656 3.6515625 9.04445313 2.828125 9.03515625 C2.22484375 9.02355469 1.6215625 9.01195312 1 9 C1 8.34 1 7.68 1 7 C0.34 6.67 -0.32 6.34 -1 6 C-0.67 4.02 -0.34 2.04 0 0 Z " fill="#E6E4D1" transform="translate(37,52)"/>
<path d="M0 0 C3.875 0.875 3.875 0.875 5 2 C8.04304432 2.07266972 11.07403966 1.99616309 14.1171875 1.9375 C17 2 17 2 20 3 C20 3.66 20 4.32 20 5 C14.62669111 8.39366878 10.13053511 8.32712342 4 8 C4.33 7.01 4.66 6.02 5 5 C2.69 4.67 0.38 4.34 -2 4 C-1.34 2.68 -0.68 1.36 0 0 Z " fill="#7FA6D8" transform="translate(50,62)"/>
<path d="M0 0 C3.625 1 3.625 1 6 2 C5.01 3.485 5.01 3.485 4 5 C2.80375 4.649375 1.6075 4.29875 0.375 3.9375 C-3.42153867 3.01184216 -6.21522461 2.70973566 -10 4 C-12.32945419 6.39601002 -13.88655472 8.80487411 -15.5625 11.6875 C-17 14 -17 14 -20 16 C-16.23541761 5.0484876 -11.87419155 -1.12298556 0 0 Z M-22 16 C-21.01 16.495 -21.01 16.495 -20 17 C-20.99 17.495 -20.99 17.495 -22 18 C-22 17.34 -22 16.68 -22 16 Z M-25 19 C-24.34 19.33 -23.68 19.66 -23 20 C-23.33 20.66 -23.66 21.32 -24 22 C-24.66 22 -25.32 22 -26 22 C-25.67 21.01 -25.34 20.02 -25 19 Z " fill="#B1CAED" transform="translate(40,27)"/>
<path d="M0 0 C0.33 0 0.66 0 1 0 C1.44471606 7.52311338 1.70315539 12.89860922 -3 19 C-7.04145306 23.26597823 -10.36307241 23.61783542 -16 24 C-13.39253144 21.31584119 -10.87344439 18.89927207 -7.9375 16.5625 C-2.16685308 11.52853141 -0.51066471 7.40463836 0 0 Z " fill="#82A9DB" transform="translate(87,42)"/>
<path d="M0 0 C1.32 0 2.64 0 4 0 C6.32488647 3.63263511 6.23961213 6.76685233 6 11 C5 12 5 12 2 12.125 C-1 12 -1 12 -2 11 C-2.23961213 6.76685233 -2.32488647 3.63263511 0 0 Z " fill="#32A0EB" transform="translate(22,71)"/>
<path d="M0 0 C1.32 0 2.64 0 4 0 C6.32488647 3.63263511 6.23961213 6.76685233 6 11 C5 12 5 12 2 12.125 C-1 12 -1 12 -2 11 C-2.23961213 6.76685233 -2.32488647 3.63263511 0 0 Z " fill="#32A0EB" transform="translate(74,68)"/>
<path d="M0 0 C0 3 0 3 -1.4609375 4.5703125 C-2.40839844 5.33988281 -2.40839844 5.33988281 -3.375 6.125 C-4.00148438 6.64320312 -4.62796875 7.16140625 -5.2734375 7.6953125 C-11.34974708 12.28691295 -20.90512374 9.9154679 -28 9 C-27.67 8.34 -27.34 7.68 -27 7 C-25.865625 6.97421875 -24.73125 6.9484375 -23.5625 6.921875 C-10.68106181 6.68492341 -10.68106181 6.68492341 0 0 Z " fill="#A6C3E8" transform="translate(78,52)"/>
<path d="M0 0 C0.33 0 0.66 0 1 0 C1 2.31 1 4.62 1 7 C4.45011016 8.38004406 7.37120846 9.12553913 11.0625 9.0625 C14.30737905 9.01099398 16.88101261 9.22025315 20 10 C16.57834029 13.42165971 12.03639134 12.95037251 7.37890625 13.22265625 C4.00286454 13.00018876 2.83690413 12.90735214 0.625 10.4375 C-1.05546612 6.88266782 -1.53982018 4.86871126 -1 1 C-0.67 0.67 -0.34 0.34 0 0 Z " fill="#A8C4E9" transform="translate(16,49)"/>
<path d="M0 0 C1.32 0 2.64 0 4 0 C6.56025206 2.92600235 7.20905314 5.40134503 7.3125 9.1875 C7 13 7 13 5 15 C2 15.25 2 15.25 -1 15 C-3 13 -3 13 -3.3125 9.1875 C-3.20905314 5.40134503 -2.56025206 2.92600235 0 0 Z M-1 5 C-2.33187793 6.11166864 -2.33187793 6.11166864 -2.1875 8.9375 C-2.33278733 12.10892859 -2.33278733 12.10892859 0 14 C3.09926819 13.67801034 3.09926819 13.67801034 6 13 C6 10.69 6 8.38 6 6 C3.6739143 5.61936779 1.33944736 5.28730055 -1 5 Z " fill="#2AA1EA" transform="translate(57,75)"/>
<path d="M0 0 C5.28 0 10.56 0 16 0 C16 0.66 16 1.32 16 2 C10.93867683 4.45397487 6.41538487 4.82225868 1.0625 3 C0.381875 2.67 -0.29875 2.34 -1 2 C-0.67 1.34 -0.34 0.68 0 0 Z " fill="#E2E9EA" transform="translate(38,50)"/>
<path d="M0 0 C0.680625 -0.01417969 1.36125 -0.02835938 2.0625 -0.04296875 C4 0.1875 4 0.1875 7 2.1875 C7 3.1775 7 4.1675 7 5.1875 C-1 4.1875 -1 4.1875 -9 3.1875 C-6.21122917 0.39872917 -3.79375187 0.03592568 0 0 Z " fill="#7FA8DA" transform="translate(28,62.8125)"/>
<path d="M0 0 C-0.33 0.66 -0.66 1.32 -1 2 C-2.890625 2.37890625 -2.890625 2.37890625 -5.25 2.5625 C-6.46623047 2.67851562 -6.46623047 2.67851562 -7.70703125 2.796875 C-8.46371094 2.86390625 -9.22039063 2.9309375 -10 3 C-12.83073081 3.19513752 -12.83073081 3.19513752 -15 4 C-16.36020151 5.96758273 -16.36020151 5.96758273 -17 8 C-17.33 7.01 -17.66 6.02 -18 5 C-13.46586082 -1.71724322 -7.50434409 -0.4944297 0 0 Z M-19 8 C-19 11 -19 11 -19 11 Z " fill="#99B9E3" transform="translate(40,25)"/>
<path d="M0 0 C0.66 0.33 1.32 0.66 2 1 C1.06981474 2.46300982 0.13055973 3.92025579 -0.8125 5.375 C-1.33457031 6.18710937 -1.85664063 6.99921875 -2.39453125 7.8359375 C-4 10 -4 10 -7 12 C-5.44298069 7.32894208 -2.91552627 3.91294315 0 0 Z M-9 12 C-8.01 12.495 -8.01 12.495 -7 13 C-7.99 13.495 -7.99 13.495 -9 14 C-9 13.34 -9 12.68 -9 12 Z M-12 15 C-11.34 15.33 -10.68 15.66 -10 16 C-10.33 16.66 -10.66 17.32 -11 18 C-11.66 18 -12.32 18 -13 18 C-12.67 17.01 -12.34 16.02 -12 15 Z " fill="#B5CEEE" transform="translate(27,31)"/>
<path d="M0 0 C0.99 0.33 1.98 0.66 3 1 C4.89470816 1.0685495 6.7916834 1.08480372 8.6875 1.0625 C9.68136719 1.05347656 10.67523438 1.04445312 11.69921875 1.03515625 C12.45847656 1.02355469 13.21773437 1.01195312 14 1 C14 1.66 14 2.32 14 3 C11.00519083 3.8723412 8.36424089 4.10829766 5.25 4.0625 C4.45078125 4.05347656 3.6515625 4.04445313 2.828125 4.03515625 C2.22484375 4.02355469 1.6215625 4.01195312 1 4 C1 3.34 1 2.68 1 2 C0.34 1.67 -0.32 1.34 -1 1 C-0.67 0.67 -0.34 0.34 0 0 Z " fill="#F0D986" transform="translate(37,57)"/>
<path d="M0 0 C2.12534659 0.14069196 4.25027529 0.28770921 6.375 0.4375 C8.15003906 0.55931641 8.15003906 0.55931641 9.9609375 0.68359375 C13 1 13 1 15 2 C11.07178453 4.61881031 7.56556861 4.28987737 3 4 C2.01 3.34 1.02 2.68 0 2 C0 1.34 0 0.68 0 0 Z " fill="#EBE0AC" transform="translate(37,55)"/>
<path d="M0 0 C0.66 0 1.32 0 2 0 C2 0.66 2 1.32 2 2 C7.94 1.505 7.94 1.505 14 1 C9.32958611 4.50281042 7.58600962 4.5344992 2 5 C1.34 3.35 0.68 1.7 0 0 Z " fill="#F7D55B" transform="translate(36,59)"/>
<path d="M0 0 C1.32 0 2.64 0 4 0 C4 1.65 4 3.3 4 5 C2.35 5.33 0.7 5.66 -1 6 C-1.042721 4.33388095 -1.04063832 2.66617115 -1 1 C-0.67 0.67 -0.34 0.34 0 0 Z " fill="#82D2F7" transform="translate(58,83)"/>
<path d="M0 0 C0 0.99 0 1.98 0 3 C-4.29 3 -8.58 3 -13 3 C-13 2.34 -13 1.68 -13 1 C-8.61414671 0.29826347 -4.44209357 -0.10834375 0 0 Z " fill="#B3CCEE" transform="translate(36,56)"/>
<path d="M0 0 C0.33 0.66 0.66 1.32 1 2 C0.34 1.67 -0.32 1.34 -1 1 C-0.67 0.67 -0.34 0.34 0 0 Z M-3 2 C-2.34 2.33 -1.68 2.66 -1 3 C-1.7425 3.5775 -2.485 4.155 -3.25 4.75 C-5.66087643 6.72253526 -7.84042701 8.76044282 -10 11 C-9.09539273 7.29933391 -8.56131642 5.43502022 -5.5 3.0625 C-4.675 2.711875 -3.85 2.36125 -3 2 Z " fill="#92B5E1" transform="translate(19,36)"/>
<path d="M0 0 C0.99 0 1.98 0 3 0 C3 1.65 3 3.3 3 5 C1.68 5 0.36 5 -1 5 C-0.67 3.35 -0.34 1.7 0 0 Z " fill="#82D2F7" transform="translate(23,77)"/>
<path d="M0 0 C0.99 0 1.98 0 3 0 C3 1.65 3 3.3 3 5 C1.68 5 0.36 5 -1 5 C-0.67 3.35 -0.34 1.7 0 0 Z " fill="#82D2F7" transform="translate(75,74)"/>
<path d="M0 0 C1.32 0 2.64 0 4 0 C4.66 1.32 5.32 2.64 6 4 C3.36 4 0.72 4 -2 4 C-1.34 2.68 -0.68 1.36 0 0 Z " fill="#0E8BE9" transform="translate(57,75)"/>
<path d="M0 0 C0.66 0.33 1.32 0.66 2 1 C2.05399736 2.45792884 2.09279177 3.91642712 2.125 5.375 C2.14820313 6.18710938 2.17140625 6.99921875 2.1953125 7.8359375 C2 10 2 10 0 12 C0.33 9.36 0.66 6.72 1 4 C0.34 4 -0.32 4 -1 4 C-0.67 2.68 -0.34 1.36 0 0 Z " fill="#F8C131" transform="translate(36,61)"/>
<path d="M0 0 C0.33 0 0.66 0 1 0 C1.25 2.3125 1.25 2.3125 1 5 C-1 6.8125 -1 6.8125 -3 8 C-3.66 7.67 -4.32 7.34 -5 7 C-4.0409375 6.1028125 -4.0409375 6.1028125 -3.0625 5.1875 C-0.79689611 3.09189663 -0.79689611 3.09189663 0 0 Z M-7 8 C-5 9 -5 9 -5 9 Z " fill="#C7DAF5" transform="translate(74,47)"/>
<path d="M0 0 C3.3 0 6.6 0 10 0 C10.33 0.99 10.66 1.98 11 3 C9.35333797 2.8864371 7.70763918 2.75882619 6.0625 2.625 C5.14597656 2.55539063 4.22945312 2.48578125 3.28515625 2.4140625 C2.15400391 2.20910156 2.15400391 2.20910156 1 2 C0.67 1.34 0.34 0.68 0 0 Z " fill="#A7C4E9" transform="translate(30,27)"/>
</svg>
