<?xml version="1.0" encoding="UTF-8"?>
<svg version="1.1" xmlns="http://www.w3.org/2000/svg" width="128" height="128">
<path d="M0 0 C4.69650274 2.13802696 7.54624428 5.11841989 10.48828125 9.30859375 C10.98328125 10.79359375 10.98328125 10.79359375 11.48828125 12.30859375 C13.3924982 13.1152852 13.3924982 13.1152852 15.67578125 13.62109375 C20.73887406 15.14728919 23.11735498 17.26348222 26.48828125 21.30859375 C28.20061671 26.44560014 28.61487449 32.30251325 26.6875 37.4453125 C23.45933274 42.55935066 18.93760432 44.19108516 13.48828125 46.30859375 C11.81408687 47.29593915 10.14776273 48.2967148 8.48828125 49.30859375 C7.67875 49.63214844 6.86921875 49.95570312 6.03515625 50.2890625 C3.27903172 51.44269748 0.90071197 52.53976977 -1.51171875 54.30859375 C-2.39644557 56.58238442 -2.62750196 58.60133049 -2.8984375 61.01953125 C-4.0659754 65.37734788 -7.88105209 67.89294227 -11.51171875 70.30859375 C-14.27992971 71.23133074 -15.96652204 71.4434649 -18.82421875 71.43359375 C-19.62214844 71.43101563 -20.42007813 71.4284375 -21.2421875 71.42578125 C-23.51171875 71.30859375 -23.51171875 71.30859375 -26.63671875 70.55859375 C-30.91473169 70.18659262 -32.90304594 72.03646643 -36.51171875 74.30859375 C-44.65910174 77.07101116 -53.9007642 75.90649954 -61.51171875 72.30859375 C-62.17171875 71.85484375 -62.83171875 71.40109375 -63.51171875 70.93359375 C-66.51293775 69.99571281 -68.52445283 71.40369085 -71.30859375 72.55859375 C-78.1525015 74.88843469 -85.10391075 73.20647183 -91.51171875 70.30859375 C-95.84997642 67.60923342 -98.92795806 64.20385407 -100.51171875 59.30859375 C-101.2374285 53.42961175 -101.40638286 48.23556261 -98.88671875 42.80859375 C-93.16951166 36.79048103 -88.7170048 33.9740231 -80.51171875 32.30859375 C-79.19171875 32.30859375 -77.87171875 32.30859375 -76.51171875 32.30859375 C-76.47046875 31.31859375 -76.42921875 30.32859375 -76.38671875 29.30859375 C-75.54554219 23.62777125 -72.16208683 19.55072978 -67.86328125 15.9140625 C-62.28603565 12.46786052 -56.30341444 13.10681309 -50 13.4609375 C-46.15051839 13.29281904 -44.65757534 12.39879377 -41.51171875 10.30859375 C-39.1953125 9.796875 -39.1953125 9.796875 -36.94921875 9.62109375 C-36.20542969 9.55535156 -35.46164063 9.48960938 -34.6953125 9.421875 C-32.63653733 9.31506913 -30.57326252 9.30859375 -28.51171875 9.30859375 C-26.94099211 7.89091602 -26.94099211 7.89091602 -25.63671875 5.99609375 C-19.66952704 -2.13633609 -9.1432474 -2.51688148 0 0 Z " fill="#4CBAFE" transform="translate(100.51171875,0.69140625)"/>
<path d="M0 0 C6.35285883 -0.45377563 10.71895694 0.31004042 16 4 C18.83177931 6.68458286 20.75089916 9.25269747 22 13 C23.90421695 13.80669145 23.90421695 13.80669145 26.1875 14.3125 C31.25059281 15.83869544 33.62907373 17.95488847 37 22 C38.71233546 27.13700639 39.12659324 32.9939195 37.19921875 38.13671875 C33.97105149 43.25075691 29.44932307 44.88249141 24 47 C22.32580562 47.9873454 20.65948148 48.98812105 19 50 C18.19046875 50.32355469 17.3809375 50.64710937 16.546875 50.98046875 C13.79075047 52.13410373 11.41243072 53.23117602 9 55 C8.11527318 57.27379067 7.88421679 59.29273674 7.61328125 61.7109375 C6.44574335 66.06875413 2.63066666 68.58434852 -1 71 C-3.76821096 71.92273699 -5.45480329 72.13487115 -8.3125 72.125 C-9.11042969 72.12242188 -9.90835938 72.11984375 -10.73046875 72.1171875 C-13 72 -13 72 -16.125 71.25 C-19.79339835 70.93100884 -21.30687843 72.06582165 -24.3203125 74.0078125 C-26.47476694 75.28044373 -28.53188306 75.70083431 -31 76 C-29.85350865 73.29011134 -28.62596302 71.58659071 -26.625 69.375 C-21.09726657 62.9804918 -18.70080789 54.04540062 -18.7734375 45.765625 C-19.28004665 39.5814995 -21.54579363 33.66355317 -24 28 C-20.14600011 27.15212002 -17.64966235 26.7791148 -13.875 28.0625 C-10.37490921 30.42125683 -8.45577272 32.56191819 -6 36 C-5.87625 36.721875 -5.7525 37.44375 -5.625 38.1875 C-5.41875 38.785625 -5.2125 39.38375 -5 40 C-3.29625052 40.72081709 -1.58866297 41.43521031 0.14453125 42.08203125 C3.37442801 43.67998017 4.9492235 46.07919711 7 49 C7 49.66 7 50.32 7 51 C10.32388856 49.62093985 11.79712016 48.27131019 13.625 45.1875 C14.02976563 44.52105469 14.43453125 43.85460938 14.8515625 43.16796875 C18.95775208 35.41648843 19.62489308 26.49126812 17.125 18.04296875 C13.4742755 10.22513437 8.02965014 4.32936713 0 1 C0 0.67 0 0.34 0 0 Z " fill="#3192F4" transform="translate(90,0)"/>
<path d="M0 0 C6.7491248 3.80956459 14.07613841 10.533764 16.71875 17.9921875 C18.94670942 30.05316011 16.7093312 38.44974272 10 48.31640625 C9.38125 48.93515625 8.7625 49.55390625 8.125 50.19140625 C7.135 50.19140625 6.145 50.19140625 5.125 50.19140625 C3.76136792 48.21194033 2.43081356 46.20948175 1.125 44.19140625 C-1.0840695 42.19611767 -2.57390426 41.27953183 -5.4375 40.44140625 C-9.01574271 38.60640999 -9.37074706 35.82668419 -10.875 32.19140625 C-14.85719534 27.86787988 -18.25091448 27.55425048 -23.875 27.19140625 C-24.865 27.19140625 -25.855 27.19140625 -26.875 27.19140625 C-28.05078125 25.58203125 -28.05078125 25.58203125 -29.1875 23.44140625 C-31.56259187 19.35740681 -33.77836675 17.47789923 -37.875 15.19140625 C-37.545 14.20140625 -37.215 13.21140625 -36.875 12.19140625 C-32.34975317 10.00959081 -29.24841295 9.02628382 -24.25 9.44140625 C-21.44900177 9.56151767 -20.34443016 9.59145181 -18.18359375 7.75 C-17.18662063 6.50313283 -16.21485161 5.23568778 -15.26953125 3.94921875 C-11.50288779 -0.79865116 -5.54635256 -2.39186454 0 0 Z " fill="#6BE2FE" transform="translate(91.875,0.80859375)"/>
<path d="M0 0 C6.35285883 -0.45377563 10.71895694 0.31004042 16 4 C18.83177931 6.68458286 20.75089916 9.25269747 22 13 C23.90421695 13.80669145 23.90421695 13.80669145 26.1875 14.3125 C31.25059281 15.83869544 33.62907373 17.95488847 37 22 C38.71233546 27.13700639 39.12659324 32.9939195 37.19921875 38.13671875 C33.97163019 43.24984015 29.44897912 44.88427917 24 47 C22.31243867 47.96432076 20.64333504 48.96210419 19 50 C12.61454545 54 12.61454545 54 8 54 C7.505 52.515 7.505 52.515 7 51 C7.60585937 50.74863281 8.21171875 50.49726562 8.8359375 50.23828125 C11.31528622 48.81959254 12.18036191 47.62474427 13.625 45.1875 C14.02976562 44.52105469 14.43453125 43.85460938 14.8515625 43.16796875 C18.95775208 35.41648843 19.62489308 26.49126812 17.125 18.04296875 C13.4742755 10.22513437 8.02965014 4.32936713 0 1 C0 0.67 0 0.34 0 0 Z " fill="#4DBAFE" transform="translate(90,0)"/>
<path d="M0 0 C1.32 0 2.64 0 4 0 C4 0.66 4 1.32 4 2 C5.98 1.67 7.96 1.34 10 1 C10.20086443 4.71599191 10.1519437 5.77208445 8 9 C8 10.32 8 11.64 8 13 C9.32 13 10.64 13 12 13 C12.2475 12.21625 12.495 11.4325 12.75 10.625 C14.15389099 7.67682892 15.00675737 7.0975223 18 6 C18.33 7.65 18.66 9.3 19 11 C20.32 11.33 21.64 11.66 23 12 C22.67 14.97 22.34 17.94 22 21 C18.28400809 21.20086443 17.22791555 21.1519437 14 19 C12.68 19 11.36 19 10 19 C10.04768403 20.87880872 10.04768403 20.87880872 11 23 C13.97763043 25.26325246 13.97763043 25.26325246 17 27 C16.67 27.99 16.34 28.98 16 30 C14.68 30 13.36 30 12 30 C12 31.32 12 32.64 12 34 C8.7 33.67 5.4 33.34 2 33 C2 28 2 28 4 25 C3.69159401 22.84725052 3.69159401 22.84725052 3 21 C2.01 21 1.02 21 0 21 C-0.28875 21.78375 -0.5775 22.5675 -0.875 23.375 C-2 26 -2 26 -4 28 C-4.99 28 -5.98 28 -7 28 C-7.33 27.01 -7.66 26.02 -8 25 C-7.67 24.34 -7.34 23.68 -7 23 C-8.32 23 -9.64 23 -11 23 C-11 21.68 -11 20.36 -11 19 C-10.34 19 -9.68 19 -9 19 C-9.33 17.02 -9.66 15.04 -10 13 C-5.3125 13.78125 -5.3125 13.78125 -0.625 14.5625 C0.674375 14.7790625 0.674375 14.7790625 2 15 C2 13.68 2 12.36 2 11 C1.21625 10.690625 0.4325 10.38125 -0.375 10.0625 C-3 9 -3 9 -5 8 C-5 6.68 -5 5.36 -5 4 C-3.35 4 -1.7 4 0 4 C0 2.68 0 1.36 0 0 Z " fill="#4CBBFF" transform="translate(76,86)"/>
<path d="M0 0 C0 0.66 0 1.32 0 2 C0.99 2 1.98 2 3 2 C2.6875 4.375 2.6875 4.375 2 7 C1.01 7.66 0.02 8.32 -1 9 C2.465 8.505 2.465 8.505 6 8 C7.25 11.1875 7.25 11.1875 8 15 C6.125 17.9375 6.125 17.9375 4 20 C2.68 19.67 1.36 19.34 0 19 C-0.33 17.68 -0.66 16.36 -1 15 C-1.66 15 -2.32 15 -3 15 C-2.505 15.86625 -2.505 15.86625 -2 16.75 C-1 19 -1 19 -1 23 C-8.38461538 24.35384615 -8.38461538 24.35384615 -11.5 22.5625 C-11.995 22.046875 -12.49 21.53125 -13 21 C-12.45773019 17.20411134 -10.79872437 15.52788007 -8 13 C-8.556875 13.350625 -9.11375 13.70125 -9.6875 14.0625 C-12.53886783 15.21845993 -14.08517222 14.80967438 -17 14 C-17 11.69 -17 9.38 -17 7 C-16.34 7 -15.68 7 -15 7 C-15 6.01 -15 5.02 -15 4 C-13.35 4 -11.7 4 -10 4 C-9.67 5.32 -9.34 6.64 -9 8 C-8.34 7.67 -7.68 7.34 -7 7 C-7.66 5.02 -8.32 3.04 -9 1 C-5.57367167 -0.61798838 -3.61944899 -1.34053666 0 0 Z " fill="#4DBBFF" transform="translate(34,82)"/>
<path d="M0 0 C2.31 0 4.62 0 7 0 C8 3 8 3 8 7 C8.99 5.02 9.98 3.04 11 1 C11.598125 1.309375 12.19625 1.61875 12.8125 1.9375 C15.08956772 3.10209704 15.08956772 3.10209704 18 4 C18 6.64 18 9.28 18 12 C15.69 12 13.38 12 11 12 C11.928125 12.4640625 11.928125 12.4640625 12.875 12.9375 C14.25 13.625 15.625 14.3125 17 15 C17 16.32 17 17.64 17 19 C16.34 19 15.68 19 15 19 C14.34 20.32 13.68 21.64 13 23 C10.69 23 8.38 23 6 23 C6 20.69 6 18.38 6 16 C5.7525 16.61875 5.505 17.2375 5.25 17.875 C3.79371361 20.35068687 2.62187494 20.95125002 0 22 C-0.33 21.01 -0.66 20.02 -1 19 C-3.01508358 18.26676204 -3.01508358 18.26676204 -5 18 C-5 15.69 -5 13.38 -5 11 C-1.535 10.505 -1.535 10.505 2 10 C-0.475 9.01 -0.475 9.01 -3 8 C-3 6.68 -3 5.36 -3 4 C-2.34 4 -1.68 4 -1 4 C-0.67 2.68 -0.34 1.36 0 0 Z " fill="#4BBCFF" transform="translate(110,58)"/>
<path d="M0 0 C2.375 1 2.375 1 3.8125 3.3125 C4.375 6 4.375 6 3.875 8.25 C2.375 10 2.375 10 -0.5625 10.9375 C-3.625 11 -3.625 11 -5.5 9.875 C-7.01963316 7.34227807 -7.13319361 5.9039635 -6.625 3 C-4.42144199 0.55160221 -3.30440726 0 0 0 Z " fill="#6AE3FF" transform="translate(49.625,112)"/>
<path d="M0 0 C2.5 0.25 2.5 0.25 4.5 2.25 C4.125 5.375 4.125 5.375 3.5 8.25 C0.48968256 9.18423645 -0.36650268 9.29449911 -3.5 8.25 C-4.125 5.375 -4.125 5.375 -4.5 2.25 C-2.5 0.25 -2.5 0.25 0 0 Z " fill="#69E5FF" transform="translate(95.5,73.75)"/>
<path d="M0 0 C2.5625 0.1875 2.5625 0.1875 4.5625 2.1875 C4.00694444 6.74305556 4.00694444 6.74305556 2.5625 8.1875 C0.125 8.375 0.125 8.375 -2.4375 8.1875 C-3.0975 7.5275 -3.7575 6.8675 -4.4375 6.1875 C-3.71780303 0.28598485 -3.71780303 0.28598485 0 0 Z " fill="#6CE4FF" transform="translate(57.4375,85.8125)"/>
<path d="M0 0 C4.55555556 0.55555556 4.55555556 0.55555556 6 2 C6.04063832 3.66617115 6.042721 5.33388095 6 7 C3.6875 8.125 3.6875 8.125 1 9 C0.01 8.34 -0.98 7.68 -2 7 C-2.3125 4.5 -2.3125 4.5 -2 2 C-1.34 1.34 -0.68 0.68 0 0 Z " fill="#6CE2FF" transform="translate(107,117)"/>
<path d="M0 0 C2.6875 0.875 2.6875 0.875 5 2 C5.125 4.375 5.125 4.375 5 7 C4.34 7.66 3.68 8.32 3 9 C-0.125 8.625 -0.125 8.625 -3 8 C-3.1875 5.125 -3.1875 5.125 -3 2 C-2.01 1.34 -1.02 0.68 0 0 Z " fill="#6BE3FF" transform="translate(3,102)"/>
<path d="M0 0 C0 1.32 0 2.64 0 4 C-5.94 4.495 -5.94 4.495 -12 5 C-12 4.01 -12 3.02 -12 2 C-8.09971775 -0.60018816 -4.52565431 -0.15085514 0 0 Z " fill="#2D7AE6" transform="translate(84,36)"/>
<path d="M0 0 C0.99 0.33 1.98 0.66 3 1 C2.54177532 4.46941546 2.10868317 7.67395049 1 11 C-0.65 11.33 -2.3 11.66 -4 12 C-3.52494322 10.18641846 -3.04483958 8.37415821 -2.5625 6.5625 C-2.29566406 5.55316406 -2.02882813 4.54382812 -1.75390625 3.50390625 C-1 1 -1 1 0 0 Z " fill="#3395F5" transform="translate(115,35)"/>
<path d="M0 0 C1.32 0 2.64 0 4 0 C3.46884894 4.51478398 1.63379708 7.34666857 -1 11 C-1.99 10.67 -2.98 10.34 -4 10 C-2.66666667 6.66666667 -1.33333333 3.33333333 0 0 Z " fill="#2C78E5" transform="translate(76,60)"/>
<path d="M0 0 C3 1 3 1 4.16796875 2.84765625 C4.50441406 3.57855469 4.84085938 4.30945313 5.1875 5.0625 C5.53167969 5.79597656 5.87585937 6.52945313 6.23046875 7.28515625 C6.48441406 7.85105469 6.73835938 8.41695312 7 9 C5.68 9.33 4.36 9.66 3 10 C-1.06153846 4.58461538 -1.06153846 4.58461538 -0.75 1.625 C-0.5025 1.08875 -0.255 0.5525 0 0 Z " fill="#3294F4" transform="translate(29,61)"/>
<path d="M0 0 C6.625 0.75 6.625 0.75 10 3 C9.67 3.99 9.34 4.98 9 6 C4.545 5.01 4.545 5.01 0 4 C0 2.68 0 1.36 0 0 Z " fill="#3395F4" transform="translate(24,30)"/>
<path d="M0 0 C1.32 0 2.64 0 4 0 C4.25 6.625 4.25 6.625 2 10 C1.01 10 0.02 10 -1 10 C-0.67 6.7 -0.34 3.4 0 0 Z " fill="#3496F5" transform="translate(112,14)"/>
<path d="M0 0 C2.0625 0.4375 2.0625 0.4375 4 1 C4 2.65 4 4.3 4 6 C2.0625 6.5625 2.0625 6.5625 0 7 C-1 6 -1 6 -1.125 3.5 C-1 1 -1 1 0 0 Z " fill="#6BE3FF" transform="translate(15,110)"/>
<path d="M0 0 C1.65 0 3.3 0 5 0 C5 1.98 5 3.96 5 6 C3.35 6 1.7 6 0 6 C0 4.02 0 2.04 0 0 Z " fill="#6CE4FF" transform="translate(14,122)"/>
<path d="M0 0 C1.98 0 3.96 0 6 0 C6.33 1.32 6.66 2.64 7 4 C4.69 4 2.38 4 0 4 C0 2.68 0 1.36 0 0 Z " fill="#6DE4FF" transform="translate(19,117)"/>
<path d="M0 0 C1.98 0 3.96 0 6 0 C6 1.32 6 2.64 6 4 C3.69 4 1.38 4 -1 4 C-0.67 2.68 -0.34 1.36 0 0 Z " fill="#6BE2FF" transform="translate(8,117)"/>
<path d="M0 0 C1.98 0.495 1.98 0.495 4 1 C3.67 2.32 3.34 3.64 3 5 C1.68 4.67 0.36 4.34 -1 4 C-0.67 2.68 -0.34 1.36 0 0 Z " fill="#6BE2FF" transform="translate(1,75)"/>
<path d="M0 0 C2.475 0.495 2.475 0.495 5 1 C4.34 2.32 3.68 3.64 3 5 C2.01 4.67 1.02 4.34 0 4 C0 2.68 0 1.36 0 0 Z " fill="#67E5FF" transform="translate(113,99)"/>
<path d="M0 0 C1.32 0.66 2.64 1.32 4 2 C3.67 2.99 3.34 3.98 3 5 C1.68 5 0.36 5 -1 5 C-0.67 3.35 -0.34 1.7 0 0 Z " fill="#6EE6FF" transform="translate(6,83)"/>
<path d="M0 0 C1.32 0 2.64 0 4 0 C4 1.32 4 2.64 4 4 C2.35 3.67 0.7 3.34 -1 3 C-0.67 2.01 -0.34 1.02 0 0 Z " fill="#6CE3FF" transform="translate(109,91)"/>
</svg>
