<?xml version="1.0" encoding="UTF-8"?>
<svg version="1.1" xmlns="http://www.w3.org/2000/svg" width="128" height="128">
<path d="M0 0 C8.80288754 6.34043826 15.4186507 14.72648904 17.58203125 25.4921875 C18.92007691 37.90936834 17.85729499 48.88109459 10.39453125 59.2421875 C3.58210875 67.3274193 -4.72289951 73.55522767 -15.48876953 74.71533203 C-28.40007937 75.61089799 -39.16843729 74.04490094 -49.3515625 65.46484375 C-57.86959925 57.33325857 -62.42046403 48.68416257 -62.88867188 36.85693359 C-63.04371176 24.34263074 -60.22647828 14.71931927 -51.41796875 5.4921875 C-37.63784493 -7.66275112 -16.31305228 -10.17259803 0 0 Z " fill="#FDD301" transform="translate(86.41796875,29.5078125)"/>
<path d="M0 0 C-2.70612632 1.38963243 -5.4366586 2.59632763 -8.25 3.75 C-17.6520171 7.95778798 -24.86547765 14.39808568 -29.32421875 23.7890625 C-33.80142133 35.69685042 -33.09780376 47.38666007 -28 59 C-21.4909052 70.09581446 -12.16103437 75.68709554 0 79 C0 79.33 0 79.66 0 80 C-12.80187591 80.62195349 -22.75290288 79.55066233 -32.93359375 70.97265625 C-41.4516305 62.84107107 -46.00249528 54.19197507 -46.47070312 42.36474609 C-46.62574301 29.85044324 -43.80850953 20.22713177 -35 11 C-24.50639104 0.9824716 -13.93792561 -0.67714618 0 0 Z " fill="#FAC600" transform="translate(70,24)"/>
<path d="M0 0 C4.29559438 1.52732245 7.09238118 4.38590955 9.8125 8 C10.375 10.8125 10.375 10.8125 9.8125 13 C7.8125 15 7.8125 15 5.4609375 15.3515625 C1.17820958 14.78305879 -0.76877878 12.21497189 -3.640625 9.17578125 C-5.1875 7 -5.1875 7 -5.3125 3.5625 C-3.95027863 0.45966244 -3.35395429 0 0 0 Z " fill="#FED401" transform="translate(101.1875,96)"/>
<path d="M0 0 C0.825 0.33 1.65 0.66 2.5 1 C3.5 3.5 3.5 3.5 3.5 7 C1.25643677 10.17743219 -1.27678959 12.81796409 -4.5 15 C-7.1484375 15.3515625 -7.1484375 15.3515625 -9.5 15 C-11.5 13 -11.5 13 -11.8515625 10.6484375 C-11.28304853 6.36563224 -8.71078085 4.41914053 -5.6796875 1.5390625 C-3.5 0 -3.5 0 0 0 Z " fill="#FED401" transform="translate(28.5,96)"/>
<path d="M0 0 C2.1875 0.5625 2.1875 0.5625 4.1875 2.5625 C4.75 4.75 4.75 4.75 4.1875 7.5625 C1.4808671 11.15867237 -1.37537052 13.97458339 -5.5625 15.6875 C-7.8125 15.5625 -7.8125 15.5625 -9.6875 14.4375 C-10.8125 12.5625 -10.8125 12.5625 -10.9375 10.3125 C-8.95304598 5.46161239 -5.26589219 1.05317844 0 0 Z " fill="#FED401" transform="translate(106.8125,16.4375)"/>
<path d="M0 0 C4.28280526 0.56851397 6.22929697 3.14078165 9.109375 6.171875 C10.6484375 8.3515625 10.6484375 8.3515625 10.6484375 11.8515625 C10.1534375 13.0890625 10.1534375 13.0890625 9.6484375 14.3515625 C7.4140625 15.0625 7.4140625 15.0625 4.6484375 15.3515625 C2.4453125 13.953125 2.4453125 13.953125 0.3984375 11.9765625 C-0.28734375 11.32945313 -0.973125 10.68234375 -1.6796875 10.015625 C-4.35117324 7.35662283 -4.35117324 7.35662283 -4.5390625 4.9140625 C-4.28689895 1.46782734 -3.42680923 0.51231367 0 0 Z " fill="#FED401" transform="translate(21.3515625,16.6484375)"/>
<path d="M0 0 C3 0.125 3 0.125 4 1.125 C4.09909302 3.45660055 4.12970504 5.79129942 4.125 8.125 C4.12757812 9.40375 4.13015625 10.6825 4.1328125 12 C4 15.125 4 15.125 3 16.125 C0 16.25 0 16.25 -3 16.125 C-4 15.125 -4 15.125 -4.1328125 12 C-4.13023438 10.72125 -4.12765625 9.4425 -4.125 8.125 C-4.12757812 6.84625 -4.13015625 5.5675 -4.1328125 4.25 C-3.95919858 0.16496661 -3.95919858 0.16496661 0 0 Z " fill="#FED401" transform="translate(64,111.875)"/>
<path d="M0 0 C1.27875 0.00257812 2.5575 0.00515625 3.875 0.0078125 C5.15375 0.00523438 6.4325 0.00265625 7.75 0 C10.875 0.1328125 10.875 0.1328125 11.875 1.1328125 C12 4.1328125 12 4.1328125 11.875 7.1328125 C10.875 8.1328125 10.875 8.1328125 7.75 8.265625 C6.47125 8.26304688 5.1925 8.26046875 3.875 8.2578125 C2.59625 8.26039062 1.3175 8.26296875 0 8.265625 C-3.125 8.1328125 -3.125 8.1328125 -4.125 7.1328125 C-4.25 4.1328125 -4.25 4.1328125 -4.125 1.1328125 C-3.125 0.1328125 -3.125 0.1328125 0 0 Z " fill="#FED401" transform="translate(116.125,59.8671875)"/>
<path d="M0 0 C1.27875 0.00257812 2.5575 0.00515625 3.875 0.0078125 C5.15375 0.00523438 6.4325 0.00265625 7.75 0 C10.875 0.1328125 10.875 0.1328125 11.875 1.1328125 C12 4.1328125 12 4.1328125 11.875 7.1328125 C10.875 8.1328125 10.875 8.1328125 7.75 8.265625 C6.47125 8.26304688 5.1925 8.26046875 3.875 8.2578125 C2.59625 8.26039062 1.3175 8.26296875 0 8.265625 C-3.125 8.1328125 -3.125 8.1328125 -4.125 7.1328125 C-4.25 4.1328125 -4.25 4.1328125 -4.125 1.1328125 C-3.125 0.1328125 -3.125 0.1328125 0 0 Z " fill="#FED401" transform="translate(4.125,59.8671875)"/>
<path d="M0 0 C3 0.125 3 0.125 4 1.125 C4.09909302 3.45660055 4.12970504 5.79129942 4.125 8.125 C4.12757812 9.40375 4.13015625 10.6825 4.1328125 12 C4 15.125 4 15.125 3 16.125 C0 16.25 0 16.25 -3 16.125 C-4 15.125 -4 15.125 -4.1328125 12 C-4.13023438 10.72125 -4.12765625 9.4425 -4.125 8.125 C-4.12757812 6.84625 -4.13015625 5.5675 -4.1328125 4.25 C-3.95919858 0.16496661 -3.95919858 0.16496661 0 0 Z " fill="#FED401" transform="translate(64,-0.125)"/>
<path d="M0 0 C1.99954746 -0.04254356 4.00041636 -0.04080783 6 0 C7 1 7 1 7.0625 4.0625 C7.041875 5.031875 7.02125 6.00125 7 7 C5.35 7.66 3.7 8.32 2 9 C0.68 7.68 -0.64 6.36 -2 5 C-1.34 3.35 -0.68 1.7 0 0 Z " fill="#FED401" transform="translate(81,108)"/>
<path d="M0 0 C1.4540625 0.0309375 1.4540625 0.0309375 2.9375 0.0625 C3.5975 1.7125 4.2575 3.3625 4.9375 5.0625 C3.6175 6.3825 2.2975 7.7025 0.9375 9.0625 C-1.5375 8.0725 -1.5375 8.0725 -4.0625 7.0625 C-4.10504356 5.06295254 -4.10330783 3.06208364 -4.0625 1.0625 C-3.0625 0.0625 -3.0625 0.0625 0 0 Z " fill="#FED401" transform="translate(44.0625,107.9375)"/>
<path d="M0 0 C2.625 0.625 2.625 0.625 5 2 C5.9375 3.9375 5.9375 3.9375 6 6 C5.01 7.485 5.01 7.485 4 9 C0.9375 9.25 0.9375 9.25 -2 9 C-3 8 -3 8 -3.25 5.0625 C-3.1675 4.051875 -3.085 3.04125 -3 2 C-2.01 1.34 -1.02 0.68 0 0 Z " fill="#FED401" transform="translate(111,79)"/>
<path d="M0 0 C2.475 0.99 2.475 0.99 5 2 C5.04254356 3.99954746 5.04080783 6.00041636 5 8 C4 9 4 9 0.9375 9.0625 C-0.031875 9.041875 -1.00125 9.02125 -2 9 C-2.66 7.35 -3.32 5.7 -4 4 C-2.68 2.68 -1.36 1.36 0 0 Z " fill="#FED401" transform="translate(15,79)"/>
<path d="M0 0 C1.4540625 0.0309375 1.4540625 0.0309375 2.9375 0.0625 C3.5975 1.7125 4.2575 3.3625 4.9375 5.0625 C3.6175 6.3825 2.2975 7.7025 0.9375 9.0625 C-1.5375 8.0725 -1.5375 8.0725 -4.0625 7.0625 C-4.10504356 5.06295254 -4.10330783 3.06208364 -4.0625 1.0625 C-3.0625 0.0625 -3.0625 0.0625 0 0 Z " fill="#FED401" transform="translate(112.0625,39.9375)"/>
<path d="M0 0 C1.99954746 -0.04254356 4.00041636 -0.04080783 6 0 C7 1 7 1 7.0625 4.0625 C7.041875 5.031875 7.02125 6.00125 7 7 C5.35 7.66 3.7 8.32 2 9 C0.68 7.68 -0.64 6.36 -2 5 C-1.34 3.35 -0.68 1.7 0 0 Z " fill="#FED501" transform="translate(13,40)"/>
<path d="M0 0 C2.475 0.99 2.475 0.99 5 2 C5.04254356 3.99954746 5.04080783 6.00041636 5 8 C4 9 4 9 0.9375 9.0625 C-0.031875 9.041875 -1.00125 9.02125 -2 9 C-2.66 7.35 -3.32 5.7 -4 4 C-2.68 2.68 -1.36 1.36 0 0 Z " fill="#FED401" transform="translate(83,11)"/>
<path d="M0 0 C1.8125 1.375 1.8125 1.375 2.6875 3.3125 C2.8125 5.375 2.8125 5.375 0.8125 8.375 C-2.25 8.625 -2.25 8.625 -5.1875 8.375 C-6.1875 7.375 -6.1875 7.375 -6.25 4.3125 C-6.229375 3.343125 -6.20875 2.37375 -6.1875 1.375 C-3.79410847 -0.16360884 -2.80166935 -0.80047696 0 0 Z " fill="#FED401" transform="translate(46.1875,11.625)"/>
</svg>
